<mxfile>
    <diagram id="8ngvIRGTH0GHYs5Ml3Ye" name="Page-1">
        <mxGraphModel dx="802" dy="812" grid="1" gridSize="10" guides="1" tooltips="1" connect="1" arrows="1" fold="1" page="1" pageScale="1" pageWidth="827" pageHeight="1169" math="0" shadow="0">
            <root>
                <mxCell id="0"/>
                <mxCell id="1" parent="0"/>
                <mxCell id="j6gSef0oPnRN8uQmCnfG-1" value="MapView" style="rounded=0;whiteSpace=wrap;html=1;" parent="1" vertex="1">
                    <mxGeometry x="280" y="240" width="120" height="60" as="geometry"/>
                </mxCell>
                <mxCell id="j6gSef0oPnRN8uQmCnfG-2" value="ThreadView" style="rounded=0;whiteSpace=wrap;html=1;" parent="1" vertex="1">
                    <mxGeometry x="520" y="240" width="120" height="60" as="geometry"/>
                </mxCell>
                <mxCell id="j6gSef0oPnRN8uQmCnfG-3" value="HistoryView" style="rounded=0;whiteSpace=wrap;html=1;" parent="1" vertex="1">
                    <mxGeometry x="280" y="400" width="120" height="60" as="geometry"/>
                </mxCell>
                <mxCell id="j6gSef0oPnRN8uQmCnfG-4" value="LoginView" style="rounded=0;whiteSpace=wrap;html=1;" parent="1" vertex="1">
                    <mxGeometry x="40" y="240" width="120" height="60" as="geometry"/>
                </mxCell>
                <mxCell id="j6gSef0oPnRN8uQmCnfG-6" value="" style="endArrow=classic;html=1;" parent="1" edge="1">
                    <mxGeometry width="50" height="50" relative="1" as="geometry">
                        <mxPoint x="160" y="279" as="sourcePoint"/>
                        <mxPoint x="280" y="279" as="targetPoint"/>
                    </mxGeometry>
                </mxCell>
                <mxCell id="j6gSef0oPnRN8uQmCnfG-11" value="&lt;div&gt;submit login&lt;/div&gt;" style="edgeLabel;html=1;align=center;verticalAlign=middle;resizable=0;points=[];" parent="j6gSef0oPnRN8uQmCnfG-6" vertex="1" connectable="0">
                    <mxGeometry x="-0.08" y="-2" relative="1" as="geometry">
                        <mxPoint x="5" y="-2" as="offset"/>
                    </mxGeometry>
                </mxCell>
                <mxCell id="j6gSef0oPnRN8uQmCnfG-12" value="" style="endArrow=classic;html=1;" parent="1" source="j6gSef0oPnRN8uQmCnfG-1" target="j6gSef0oPnRN8uQmCnfG-2" edge="1">
                    <mxGeometry width="50" height="50" relative="1" as="geometry">
                        <mxPoint x="430" y="370.0000000000001" as="sourcePoint"/>
                        <mxPoint x="550" y="370.0000000000001" as="targetPoint"/>
                    </mxGeometry>
                </mxCell>
                <mxCell id="j6gSef0oPnRN8uQmCnfG-13" value="&lt;div&gt;click on bubble&lt;/div&gt;" style="edgeLabel;html=1;align=center;verticalAlign=middle;resizable=0;points=[];" parent="j6gSef0oPnRN8uQmCnfG-12" vertex="1" connectable="0">
                    <mxGeometry x="-0.08" y="-2" relative="1" as="geometry">
                        <mxPoint x="5" y="-2" as="offset"/>
                    </mxGeometry>
                </mxCell>
                <mxCell id="j6gSef0oPnRN8uQmCnfG-15" value="" style="endArrow=classic;html=1;startArrow=classic;startFill=1;" parent="1" source="j6gSef0oPnRN8uQmCnfG-1" target="j6gSef0oPnRN8uQmCnfG-3" edge="1">
                    <mxGeometry width="50" height="50" relative="1" as="geometry">
                        <mxPoint x="294" y="360" as="sourcePoint"/>
                        <mxPoint x="414" y="360" as="targetPoint"/>
                    </mxGeometry>
                </mxCell>
                <mxCell id="j6gSef0oPnRN8uQmCnfG-16" value="click on burger menu" style="edgeLabel;html=1;align=center;verticalAlign=middle;resizable=0;points=[];" parent="j6gSef0oPnRN8uQmCnfG-15" vertex="1" connectable="0">
                    <mxGeometry x="-0.08" y="-2" relative="1" as="geometry">
                        <mxPoint x="5" y="-2" as="offset"/>
                    </mxGeometry>
                </mxCell>
                <mxCell id="j6gSef0oPnRN8uQmCnfG-17" value="" style="endArrow=classic;html=1;" parent="1" edge="1">
                    <mxGeometry width="50" height="50" relative="1" as="geometry">
                        <mxPoint x="280" y="261" as="sourcePoint"/>
                        <mxPoint x="160" y="261" as="targetPoint"/>
                    </mxGeometry>
                </mxCell>
                <mxCell id="j6gSef0oPnRN8uQmCnfG-18" value="logout" style="edgeLabel;html=1;align=center;verticalAlign=middle;resizable=0;points=[];" parent="j6gSef0oPnRN8uQmCnfG-17" vertex="1" connectable="0">
                    <mxGeometry x="-0.08" y="-2" relative="1" as="geometry">
                        <mxPoint x="5" y="1" as="offset"/>
                    </mxGeometry>
                </mxCell>
                <mxCell id="j6gSef0oPnRN8uQmCnfG-22" value="" style="endArrow=classic;html=1;startArrow=classic;startFill=1;" parent="1" source="j6gSef0oPnRN8uQmCnfG-2" target="j6gSef0oPnRN8uQmCnfG-3" edge="1">
                    <mxGeometry width="50" height="50" relative="1" as="geometry">
                        <mxPoint x="640" y="380" as="sourcePoint"/>
                        <mxPoint x="640" y="480" as="targetPoint"/>
                    </mxGeometry>
                </mxCell>
                <mxCell id="j6gSef0oPnRN8uQmCnfG-23" value="click on burger menu" style="edgeLabel;html=1;align=center;verticalAlign=middle;resizable=0;points=[];" parent="j6gSef0oPnRN8uQmCnfG-22" vertex="1" connectable="0">
                    <mxGeometry x="-0.08" y="-2" relative="1" as="geometry">
                        <mxPoint x="5" y="-2" as="offset"/>
                    </mxGeometry>
                </mxCell>
                <mxCell id="j6gSef0oPnRN8uQmCnfG-24" value="" style="endArrow=classic;html=1;" parent="1" source="j6gSef0oPnRN8uQmCnfG-2" target="j6gSef0oPnRN8uQmCnfG-4" edge="1">
                    <mxGeometry width="50" height="50" relative="1" as="geometry">
                        <mxPoint x="400" y="180" as="sourcePoint"/>
                        <mxPoint x="100" y="200" as="targetPoint"/>
                        <Array as="points">
                            <mxPoint x="580" y="200"/>
                            <mxPoint x="100" y="200"/>
                        </Array>
                    </mxGeometry>
                </mxCell>
                <mxCell id="j6gSef0oPnRN8uQmCnfG-25" value="logout" style="edgeLabel;html=1;align=center;verticalAlign=middle;resizable=0;points=[];" parent="j6gSef0oPnRN8uQmCnfG-24" vertex="1" connectable="0">
                    <mxGeometry x="-0.08" y="-2" relative="1" as="geometry">
                        <mxPoint x="-22" y="1" as="offset"/>
                    </mxGeometry>
                </mxCell>
                <mxCell id="j6gSef0oPnRN8uQmCnfG-30" value="" style="endArrow=classic;html=1;" parent="1" source="j6gSef0oPnRN8uQmCnfG-3" target="j6gSef0oPnRN8uQmCnfG-4" edge="1">
                    <mxGeometry width="50" height="50" relative="1" as="geometry">
                        <mxPoint x="250" y="429.71000000000004" as="sourcePoint"/>
                        <mxPoint x="130" y="429.71000000000004" as="targetPoint"/>
                        <Array as="points">
                            <mxPoint x="100" y="430"/>
                        </Array>
                    </mxGeometry>
                </mxCell>
                <mxCell id="j6gSef0oPnRN8uQmCnfG-31" value="logout" style="edgeLabel;html=1;align=center;verticalAlign=middle;resizable=0;points=[];" parent="j6gSef0oPnRN8uQmCnfG-30" vertex="1" connectable="0">
                    <mxGeometry x="-0.08" y="-2" relative="1" as="geometry">
                        <mxPoint x="53" y="2" as="offset"/>
                    </mxGeometry>
                </mxCell>
                <mxCell id="j6gSef0oPnRN8uQmCnfG-33" value="" style="endArrow=classic;html=1;" parent="1" source="j6gSef0oPnRN8uQmCnfG-2" target="j6gSef0oPnRN8uQmCnfG-2" edge="1">
                    <mxGeometry width="50" height="50" relative="1" as="geometry">
                        <mxPoint x="650" y="180" as="sourcePoint"/>
                        <mxPoint x="770" y="180" as="targetPoint"/>
                        <Array as="points">
                            <mxPoint x="700" y="300"/>
                        </Array>
                    </mxGeometry>
                </mxCell>
                <mxCell id="j6gSef0oPnRN8uQmCnfG-34" value="click on prev. or next" style="edgeLabel;html=1;align=center;verticalAlign=middle;resizable=0;points=[];" parent="j6gSef0oPnRN8uQmCnfG-33" vertex="1" connectable="0">
                    <mxGeometry x="-0.08" y="-2" relative="1" as="geometry">
                        <mxPoint x="2" y="8" as="offset"/>
                    </mxGeometry>
                </mxCell>
            </root>
        </mxGraphModel>
    </diagram>
</mxfile>